Coordinates
version=1
nRows=17
nColumns=40
inDegrees=yes

Units are S.I. units (second, meters, Newtons, ...)
Angles are in degrees.

endheader
time	pelvis_tilt	pelvis_list	pelvis_rotation	pelvis_tx	pelvis_ty	pelvis_tz	hip_flexion_r	hip_adduction_r	hip_rotation_r	knee_angle_r	knee_angle_r_beta	ankle_angle_r	subtalar_angle_r	mtp_angle_r	hip_flexion_l	hip_adduction_l	hip_rotation_l	knee_angle_l	knee_angle_l_beta	ankle_angle_l	subtalar_angle_l	mtp_angle_l	lumbar_extension	lumbar_bending	lumbar_rotation	arm_flex_r	arm_add_r	arm_rot_r	elbow_flex_r	pro_sup_r	wrist_flex_r	wrist_dev_r	arm_flex_l	arm_add_l	arm_rot_l	elbow_flex_l	pro_sup_l	wrist_flex_l	wrist_dev_l
     36.12000000	     -0.71721295	     -3.60212828	     -1.28360835	      1.08527635	      0.93632716	      0.45427498	     30.16343602	     -4.16729033	     -3.24829313	     63.21172145	     63.21172145	      1.47272173	    -16.74993163	      3.74162037	     14.01861369	     -4.66320952	     -6.00709539	     21.32330562	     21.32330562	     10.31197109	    -14.40131391	     -2.70171177	    -11.41800685	      3.00791120	      0.88958070	      2.05304432	    -12.52611625	    -11.52966642	     30.03502060	     45.90809337	      0.00000000	      0.00000000	     15.99187534	    -16.18626173	      3.61403942	     40.52462918	     46.14183140	      0.00000000	      0.00000000
     36.13300000	     -0.75862986	     -3.67430071	     -1.75859864	      1.08420769	      0.93680415	      0.45433499	     30.66056629	     -4.09634905	     -3.39198093	     60.82364370	     60.82364370	      1.74911717	    -16.69539844	      3.37648043	     13.49098573	     -4.77386428	     -6.41660162	     20.99443525	     20.99443525	     10.44321359	    -14.39055673	     -2.95017610	    -11.59021297	      3.16002872	      1.21461243	      1.00808011	    -12.84265050	    -11.68965357	     28.88106307	     45.96926985	      0.00000000	      0.00000000	     16.88250022	    -16.38048189	      3.54475845	     41.91553926	     46.17459420	      0.00000000	      0.00000000
     36.14600000	     -0.85244227	     -3.75476624	     -2.20605320	      1.08314352	      0.93710413	      0.45440306	     31.01736188	     -4.01702869	     -3.63530518	     58.10001522	     58.10001522	      1.45709849	    -16.73794644	      1.48706876	     13.02244597	     -4.88623602	     -6.79947606	     20.63602665	     20.63602665	     10.35542936	    -14.50036183	     -3.68653642	    -11.69974068	      3.31079575	      0.84176076	      0.96256151	    -12.88430484	    -12.86343904	     26.39016118	     46.20094438	      0.00000000	      0.00000000	     16.59402893	    -17.36752888	      3.95350127	     45.36448172	     46.18156280	      0.00000000	      0.00000000
     36.15900000	     -0.93494536	     -3.85377850	     -2.62336269	      1.08206925	      0.93746236	      0.45447944	     31.27048843	     -3.86663559	     -3.88441230	     55.26973317	     55.26973317	      1.77426370	    -16.32263430	      1.57624708	     12.56656763	     -4.99426725	     -7.09096946	     20.33005016	     20.33005016	     10.53532575	    -14.59018396	     -3.68218634	    -11.82678488	      3.52148221	      0.96770059	     -0.00063568	    -13.20500295	    -13.03512819	     25.62422461	     46.24546125	      0.00000000	      0.00000000	     17.46357492	    -17.55497155	      3.80926147	     46.32665665	     46.21817676	      0.00000000	      0.00000000
     36.17200000	     -1.00606557	     -3.90889948	     -3.09165115	      1.08099917	      0.93770161	      0.45473091	     31.40885568	     -3.67329149	     -4.01736152	     52.27407603	     52.27407603	      2.04572230	    -15.62939991	      1.43040474	     12.09966359	     -5.07624897	     -7.44053732	     20.03252617	     20.03252617	     10.71701343	    -14.58793252	     -3.78995340	    -12.01703049	      3.61666308	      1.36685583	     -0.96089605	    -13.51056645	    -13.36303226	     24.55506221	     46.32101381	      0.00000000	      0.00000000	     18.29091770	    -17.78140343	      3.69595556	     48.06200234	     46.26087073	      0.00000000	      0.00000000
     36.18500000	     -1.18448433	     -3.92286224	     -3.49925258	      1.07994646	      0.93771925	      0.45499927	     31.50488521	     -3.53604033	     -4.26585718	     49.00617557	     49.00617557	      1.89487348	    -14.87301009	      0.15761362	     11.78846217	     -5.13128994	     -7.84614675	     19.77089400	     19.77089400	     10.75143641	    -14.57735489	     -4.22419405	    -12.07501983	      3.67952097	      1.03371993	     -1.02150550	    -13.55886449	    -14.87331199	     22.79677653	     46.56940628	      0.00000000	      0.00000000	     17.87989643	    -18.77601982	      3.86317511	     51.69401363	     46.30859157	      0.00000000	      0.00000000
     36.19800000	     -1.40976883	     -4.01204871	     -3.89212128	      1.07887989	      0.93768088	      0.45539193	     31.54836180	     -3.26432655	     -4.51150877	     45.63388212	     45.63388212	      2.24046847	    -13.57287891	      0.22424805	     11.55409575	     -5.25559946	     -8.11327364	     19.55243302	     19.55243302	     10.88624645	    -14.65375504	     -4.24287693	    -12.04294305	      3.87967745	      1.01229428	     -1.74737064	    -13.81827313	    -15.05801113	     22.33551951	     46.60558321	      0.00000000	      0.00000000	     18.62540720	    -19.03890864	      3.67998766	     52.45453862	     46.34433073	      0.00000000	      0.00000000
     36.21100000	     -1.52989071	     -4.00303529	     -4.27908186	      1.07794101	      0.93768476	      0.45588932	     31.35345495	     -3.12842867	     -4.83968061	     42.11721828	     42.11721828	      2.65978577	    -11.64136583	     -0.05807711	     11.19059604	     -5.28675470	     -8.47526195	     19.32150836	     19.32150836	     11.05518909	    -14.61378966	     -4.35534803	    -12.18754689	      3.88951384	      1.31380241	     -2.53798747	    -14.09525896	    -15.39784321	     21.80410759	     46.66329525	      0.00000000	      0.00000000	     19.32007466	    -19.15005030	      3.49937280	     53.99128132	     46.39146538	      0.00000000	      0.00000000
     36.22400000	     -1.78070652	     -3.96587586	     -4.64816631	      1.07708660	      0.93741713	      0.45649720	     31.13775474	     -2.96552297	     -5.18138374	     38.35035075	     38.35035075	      2.54701114	     -9.72433348	     -1.58970929	     10.96009283	     -5.29865559	     -8.83978387	     19.05522002	     19.05522002	     11.11157233	    -14.60273531	     -4.70921821	    -12.19792053	      3.91027023	      1.01374218	     -2.88281588	    -14.11222218	    -17.06583341	     21.54136085	     46.87005409	      0.00000000	      0.00000000	     18.93713444	    -19.87670911	      3.21080773	     57.19356934	     46.49143731	      0.00000000	      0.00000000
     36.23700000	     -2.00424819	     -3.96524153	     -4.98612615	      1.07631782	      0.93721539	      0.45722617	     30.78771427	     -2.71832982	     -5.52759342	     34.56688809	     34.56688809	      2.87939007	     -7.40960101	     -1.46724284	     10.73146617	     -5.35093463	     -9.12961005	     18.86775345	     18.86775345	     11.29008481	    -14.61160988	     -4.78849711	    -12.15822652	      4.00112951	      1.12019014	     -3.49720078	    -14.30256396	    -17.26470066	     21.28677568	     46.90010289	      0.00000000	      0.00000000	     19.61370188	    -19.95101693	      3.02932174	     57.97940589	     46.52840048	      0.00000000	      0.00000000
     36.25000000	     -2.23872134	     -3.92117112	     -5.31558425	      1.07575126	      0.93691742	      0.45815098	     30.32746813	     -2.51304569	     -6.01038838	     30.76949060	     30.76949060	      3.27633416	     -4.75844402	     -1.30257469	     10.47717851	     -5.36784277	     -9.44042722	     18.62746624	     18.62746624	     11.43189553	    -14.53727548	     -4.89451622	    -12.11457714	      3.98432830	      1.27170189	     -4.10026578	    -14.40988511	    -17.50185448	     21.24342545	     46.92338406	      0.00000000	      0.00000000	     20.13554318	    -20.02607326	      2.85953441	     59.02334703	     46.56717237	      0.00000000	      0.00000000
     36.26300000	     -2.43038434	     -3.82506180	     -5.62484336	      1.07539626	      0.93658819	      0.45915288	     29.74451220	     -2.35896311	     -6.58533345	     27.08339136	     27.08339136	      3.57994363	     -1.94356086	     -0.88808608	     10.15821538	     -5.32433550	     -9.77163713	     18.37318160	     18.37318160	     11.59128999	    -14.45528362	     -5.05933451	    -12.07818272	      3.93604823	      1.34876292	     -4.69163301	    -14.44827803	    -17.79318044	     21.44077950	     46.93983188	      0.00000000	      0.00000000	     20.51945322	    -20.11602493	      2.68763436	     60.22200771	     46.60868598	      0.00000000	      0.00000000
     36.27600000	     -2.64737698	     -3.67884733	     -5.89386652	      1.07527478	      0.93609792	      0.46025450	     29.20456093	     -2.27578238	     -7.34912007	     23.77908229	     23.77908229	      4.09768772	      0.96797083	      0.40810901	      9.83664884	     -5.22295762	    -10.03207788	     18.06787687	     18.06787687	     11.68599667	    -14.38937846	     -5.46066562	    -11.99135174	      3.80722651	      1.26983920	     -5.38631467	    -14.38717462	    -18.54899064	     22.48797702	     46.96123014	      0.00000000	      0.00000000	     20.42508222	    -20.32175941	      2.35763481	     62.03682136	     46.68625233	      0.00000000	      0.00000000
     36.28900000	     -2.82542430	     -3.61000345	     -6.13327125	      1.07544462	      0.93566559	      0.46161756	     28.49579664	     -1.96510030	     -7.74764981	     20.61450915	     20.61450915	      4.21517576	      2.78489682	      1.27435737	      9.48793445	     -5.21884249	    -10.30087299	     17.84104193	     17.84104193	     11.84069689	    -14.36688757	     -5.58232249	    -11.82504514	      3.79995266	      1.24663987	     -5.75750449	    -14.34683764	    -18.66301187	     22.55713505	     46.96491601	      0.00000000	      0.00000000	     20.78979790	    -20.29133279	      2.26923085	     62.57840548	     46.70960488	      0.00000000	      0.00000000
     36.30200000	     -2.89773071	     -3.41837317	     -6.35857916	      1.07590711	      0.93529031	      0.46294071	     27.85107679	     -1.97163718	     -8.74895720	     18.28967740	     18.28967740	      4.90029774	      5.48358894	      3.45292993	      8.93552957	     -5.06360190	    -10.65965625	     17.45156016	     17.45156016	     11.89676215	    -14.15244964	     -6.05470047	    -11.81228240	      3.64372854	      1.27957243	     -6.34586482	    -14.23117406	    -19.12162991	     23.44818739	     46.95764441	      0.00000000	      0.00000000	     20.89524428	    -20.24105198	      1.99437880	     63.68577558	     46.77207950	      0.00000000	      0.00000000
     36.31500000	     -2.99502655	     -3.34391220	     -6.53198374	      1.07659327	      0.93482646	      0.46450882	     27.13009992	     -1.69812722	     -9.16621032	     16.20707016	     16.20707016	      4.91477446	      6.48944826	      4.42141861	      8.47171569	     -5.04290626	    -10.84066137	     17.22663377	     17.22663377	     12.08159424	    -14.10979503	     -6.21515202	    -11.66696085	      3.61525714	      1.23911302	     -6.56139020	    -14.14080595	    -19.21660979	     23.64446593	     46.95343747	      0.00000000	      0.00000000	     21.07440721	    -20.15622895	      1.93234549	     64.01709048	     46.79008510	      0.00000000	      0.00000000
     36.32800000	     -3.09629069	     -3.22376601	     -6.71553250	      1.07757740	      0.93430965	      0.46627746	     26.49969879	     -1.51796362	     -9.66755613	     14.78731222	     14.78731222	      4.91853869	      7.36323728	      5.17244571	      7.94728662	     -4.98205686	    -11.08248416	     16.91628047	     16.91628047	     12.28264187	    -13.95845535	     -6.39943145	    -11.44235684	      3.53855183	      1.21677265	     -6.71713087	    -13.98355145	    -19.29653527	     23.88515784	     46.94590948	      0.00000000	      0.00000000	     21.17076916	    -20.02565076	      1.86768623	     64.31398157	     46.80611983	      0.00000000	      0.00000000
